<svg xmlns="http://www.w3.org/2000/svg" viewBox="0 0 200 60"><defs><style>.cls-1{fill:#232323;}.cls-1,.cls-2{fill-rule:evenodd;}.cls-2{fill:#fff;}</style></defs><title>appStore</title><g id="Layer_2" data-name="Layer 2"><g id="Layer_1-2" data-name="Layer 1"><path class="cls-1" d="M4,0H196a4,4,0,0,1,4,4V56a4,4,0,0,1-4,4H4a4,4,0,0,1-4-4V4A4,4,0,0,1,4,0Z"/><path class="cls-2" d="M90.4,30.4c2.7,0,4.4,2.1,4.4,5.4s-1.7,5.4-4.4,5.4a3.63,3.63,0,0,1-3.3-1.8h0v5.2H85v-14h2.1v1.8h0a3.54,3.54,0,0,1,3.3-2Zm11.6,0c2.7,0,4.4,2.1,4.4,5.4s-1.7,5.4-4.4,5.4a3.63,3.63,0,0,1-3.3-1.8h0v5.2H96.5v-14h2.1v1.8h0a3.58,3.58,0,0,1,3.4-2Zm15.4-4c3,0,5.1,1.7,5.2,4.2h-2.2c-.1-1.4-1.3-2.3-3-2.3s-2.9.9-2.9,2.2c0,1,.8,1.6,2.6,2.1l1.6.4c3,.7,4.2,1.9,4.2,4,0,2.7-2.1,4.4-5.6,4.4-3.2,0-5.3-1.7-5.5-4.3H114c.2,1.4,1.5,2.4,3.4,2.4s3.1-.9,3.1-2.2c0-1.1-.8-1.8-2.7-2.2l-1.9-.5q-3.9-.9-3.9-3.9c.2-2.6,2.4-4.3,5.4-4.3Zm35.7,4c2.9,0,4.7,2,4.7,5.2v.7h-7.4v.1a2.73,2.73,0,0,0,2.8,3,2.38,2.38,0,0,0,2.4-1.5h2c-.3,1.9-2.1,3.2-4.5,3.2-3,0-4.9-2-4.9-5.3s1.9-5.4,4.9-5.4Zm-17.5,0c3,0,5,2.1,5,5.4s-1.9,5.4-5,5.4-5-2.1-5-5.4,2-5.4,5-5.4ZM127.5,28v2.5h2v1.7h-2V38c0,.9.4,1.3,1.3,1.3h.7V41a3.78,3.78,0,0,1-1.2.1c-2.1,0-3-.8-3-2.8v-6h-1.5V30.6h1.5V28ZM78.4,26.6,83.6,41H81.2l-1.3-3.9H74.4L73.1,41H70.8L76,26.6ZM147,30.4c.3,0,.6,0,.7.1v2a2.51,2.51,0,0,0-1-.1,2.11,2.11,0,0,0-2.2,2.4V41h-2.2V30.5h2.1v1.8h0a2.67,2.67,0,0,1,2.6-1.9ZM57.5,21.8h.3a5.72,5.72,0,0,1,4.6,2.5,5.62,5.62,0,0,0-2.7,4.8,5.43,5.43,0,0,0,3.4,5.1,11.46,11.46,0,0,1-1.8,3.6c-1,1.6-2.1,3.1-3.8,3.1s-2.2-1-4.2-1-2.5,1-4.1,1-2.9-1.7-4-3.2c-2.1-3.1-3.8-8.9-1.6-12.7a6.43,6.43,0,0,1,5.2-3.2c1.6,0,3.2,1.1,4.2,1.1s2.5-1.1,4.2-1.2C57.2,21.8,57.5,21.8,57.5,21.8Zm78.1,10.4c-1.7,0-2.8,1.3-2.8,3.6s1,3.6,2.8,3.6,2.8-1.3,2.8-3.6-1-3.6-2.8-3.6Zm-34.2,0c-1.6,0-2.8,1.4-2.8,3.5s1.1,3.5,2.8,3.5,2.8-1.4,2.8-3.5-1.1-3.5-2.8-3.5Zm-11.5,0c-1.6,0-2.8,1.4-2.8,3.5s1.1,3.5,2.8,3.5,2.8-1.4,2.8-3.5-1.2-3.5-2.8-3.5ZM77.3,29h0l-2.2,6.3h4.3L77.3,29Zm75.8,3.1a2.69,2.69,0,0,0-2.7,2.7h5.2A2.53,2.53,0,0,0,153.1,32.1ZM81.7,17.3A2.42,2.42,0,0,1,84.2,20c0,1.7-.9,2.7-2.5,2.7A2.42,2.42,0,0,1,79.2,20,2.47,2.47,0,0,1,81.7,17.3Zm22.6,0a2.42,2.42,0,0,1,2.5,2.7c0,1.7-.9,2.7-2.5,2.7a2.42,2.42,0,0,1-2.5-2.7C101.9,18.4,102.8,17.3,104.3,17.3Zm20.9,0a2.42,2.42,0,0,1,2.5,2.7c0,1.7-.9,2.7-2.5,2.7a2.42,2.42,0,0,1-2.5-2.7,2.47,2.47,0,0,1,2.5-2.7Zm24.8,0c1.5,0,2.3,1,2.3,2.6v.4h-3.7v.1a1.39,1.39,0,0,0,1.4,1.5,1.21,1.21,0,0,0,1.2-.6h1a2.16,2.16,0,0,1-2.3,1.5c-1.5,0-2.4-1-2.4-2.7A2.56,2.56,0,0,1,150,17.3Zm-39.8,0c1.3,0,2,.7,2,1.8v3.6h-1V22h-.1a1.82,1.82,0,0,1-1.6.8,1.55,1.55,0,0,1-1.7-1.6c0-.9.7-1.5,1.9-1.6l1.4-.1V19c0-.6-.4-.9-1.1-.9s-1,.2-1.1.6h-1a2.3,2.3,0,0,1,2.3-1.4Zm8.3-1.9v7.3h-1v-.8h-.1a1.7,1.7,0,0,1-1.6.9c-1.3,0-2.2-1-2.2-2.7s.8-2.7,2.2-2.7a1.7,1.7,0,0,1,1.6.9h.1V15.4Zm20.8.7v1.3h1.1v.9h-1.1V21c0,.5.2.8.7.8h.4v.9c-.2,0-.4.1-.6.1-1.1,0-1.6-.4-1.6-1.4v-3h-.8v-.9h.8V16.2h1.1Zm-7.6,1.2a1.66,1.66,0,0,1,1.8,1.9v3.4h-1V19.5c0-.8-.4-1.3-1.1-1.3s-1.2.5-1.2,1.3v3.1h-1V17.4h1v.8h.1a1.29,1.29,0,0,1,1.4-.9ZM74.8,15.7a3.08,3.08,0,0,1,3.3,3.4c0,2.2-1.2,3.5-3.3,3.5H72.3V15.7Zm25.6-.3v7.3h-1V15.4ZM96,17.3a1.66,1.66,0,0,1,1.8,1.9v3.4h-1V19.5c0-.8-.4-1.3-1.1-1.3s-1.2.5-1.2,1.3v3.1h-1V17.4h1v.8h.1a1.29,1.29,0,0,1,1.4-.9Zm-10,.1.9,4H87l1.1-4h1l1.1,4h.1l.9-4h1l-1.4,5.2H89.7l-1.1-3.9h-.1l-1.1,3.9H86.3l-1.4-5.2Zm56.8-2v2.9h.1a1.6,1.6,0,0,1,1.6-.9c1.1,0,1.8.7,1.8,2v3.4h-1V19.7c0-.8-.4-1.3-1.1-1.3a1.21,1.21,0,0,0-1.3,1.3v3.1h-1V15.5C141.8,15.4,142.8,15.4,142.8,15.4Zm-31.6,4.9-1.3.1c-.7,0-1,.3-1,.8s.4.7,1,.7a1.17,1.17,0,0,0,1.3-1.1v-.5Zm14-2c-.9,0-1.4.7-1.4,1.8s.5,1.8,1.4,1.8,1.4-.7,1.4-1.8-.5-1.8-1.4-1.8Zm-43.5,0c-.9,0-1.4.7-1.4,1.8s.5,1.8,1.4,1.8,1.4-.7,1.4-1.8S82.6,18.3,81.7,18.3Zm22.6,0c-.9,0-1.4.7-1.4,1.8s.5,1.8,1.4,1.8,1.4-.7,1.4-1.8S105.2,18.3,104.3,18.3Zm11.8,0c-.9,0-1.4.7-1.4,1.8s.5,1.8,1.4,1.8,1.4-.7,1.4-1.8S116.9,18.3,116.1,18.3ZM74.7,16.7H73.4v5h1.3A2.21,2.21,0,0,0,77,19.2c-.1-1.6-.9-2.5-2.3-2.5Zm-16.9-1a5.49,5.49,0,0,1-1.3,4.1,4.65,4.65,0,0,1-3.8,1.8A5.29,5.29,0,0,1,54,17.7,6.18,6.18,0,0,1,57.8,15.7ZM150,18.2a1.36,1.36,0,0,0-1.4,1.4h2.6A1.17,1.17,0,0,0,150,18.2Z"/></g></g></svg>