<svg xmlns="http://www.w3.org/2000/svg" viewBox="0 0 22.03 22.03"><defs><style>.cls-1,.cls-2{fill:none;}.cls-2{stroke:#ccc;stroke-width:1.43px;}.cls-3{fill:#ccc;}</style></defs><title>DJ_2</title><g id="Layer_2" data-name="Layer 2"><g id="Layer_1-2" data-name="Layer 1"><path class="cls-1" d="M.51.51h21.1v21.1H.51Z"/><circle class="cls-2" cx="11.01" cy="11.01" r="10.3"/><circle class="cls-3" cx="11.01" cy="11.01" r="1.6"/><path class="cls-1" d="M11,7.56a3.45,3.45,0,0,0-2.45,5.88l1.31-1.31a1.63,1.63,0,0,0,1.14.48,1.6,1.6,0,0,0,1.15-.49l1.31,1.32a3.42,3.42,0,0,0,1-2.43A3.46,3.46,0,0,0,11,7.56Z"/><path class="cls-1" d="M7.67,7.66,6.46,6.44a6.46,6.46,0,0,0,0,9.13l1.21-1.22a4.72,4.72,0,0,1,0-6.69Z"/><path class="cls-1" d="M15.57,6.44,14.36,7.66a4.72,4.72,0,0,1,0,6.69l1.21,1.22a6.46,6.46,0,0,0,0-9.13Z"/><path class="cls-3" d="M16.48,5.53l-.91.91a6.46,6.46,0,0,1,0,9.13l.9.91a7.73,7.73,0,0,0,0-10.95Z"/><path class="cls-3" d="M6.46,6.44l-.91-.91a7.73,7.73,0,0,0,0,11l.9-.91a6.46,6.46,0,0,1,0-9.13Z"/><path class="cls-3" d="M14.36,7.66l-.9.91a3.45,3.45,0,0,1,0,4.87l.91.91a4.72,4.72,0,0,0,0-6.69Z"/><path class="cls-3" d="M6.27,11a4.71,4.71,0,0,0,1.38,3.34l.91-.91a3.45,3.45,0,0,1,0-4.87l-.9-.91A4.74,4.74,0,0,0,6.27,11Z"/></g></g></svg>