<svg xmlns="http://www.w3.org/2000/svg" viewBox="0 0 26.7 30.5"><title>equalize</title><g id="Layer_2" data-name="Layer 2"><g id="Layer_1-2" data-name="Layer 1"><path d="M13.35,30a1,1,0,0,1-1-1V17.35a1,1,0,0,1,2,0V29A1,1,0,0,1,13.35,30Z"/><path d="M13.35,13.65a1,1,0,0,1-1-1V1a1,1,0,0,1,2,0V12.65A1,1,0,0,1,13.35,13.65Z"/><path d="M23.35,30.5a1,1,0,0,1-1-1V13.34a1,1,0,1,1,2,0V29.5A1,1,0,0,1,23.35,30.5Z"/><path d="M23.35,9.64a1,1,0,0,1-1-1V1.5a1,1,0,0,1,2,0V8.64A1,1,0,0,1,23.35,9.64Z"/><path d="M3.35,30a1,1,0,0,1-1-1V7.35a1,1,0,0,1,2,0V29A1,1,0,0,1,3.35,30Z"/><path d="M3.35,3.65a1,1,0,0,1-1-1V1a1,1,0,1,1,2,0V2.65A1,1,0,0,1,3.35,3.65Z"/><path d="M3.35,8.35A3.35,3.35,0,1,1,6.7,5,3.35,3.35,0,0,1,3.35,8.35Zm0-4.7A1.35,1.35,0,1,0,4.7,5h0A1.34,1.34,0,0,0,3.37,3.65Z"/><path d="M13.35,18.35A3.35,3.35,0,1,1,16.7,15a3.35,3.35,0,0,1-3.35,3.35Zm0-4.7A1.35,1.35,0,1,0,14.7,15h0a1.34,1.34,0,0,0-1.33-1.35Z"/><path d="M23.35,14.34A3.35,3.35,0,1,1,26.7,11h0A3.35,3.35,0,0,1,23.35,14.34Zm0-4.7A1.35,1.35,0,1,0,24.7,11a1.34,1.34,0,0,0-1.35-1.36Z"/></g></g></svg>