<svg xmlns="http://www.w3.org/2000/svg" xmlns:xlink="http://www.w3.org/1999/xlink" viewBox="0 0 200 60"><defs><style>.cls-1{fill:#232323;}.cls-1,.cls-2,.cls-3,.cls-4,.cls-5{fill-rule:evenodd;}.cls-2{fill:url(#linear-gradient);}.cls-3{fill:url(#linear-gradient-2);}.cls-4{fill:url(#linear-gradient-3);}.cls-5{fill:url(#linear-gradient-4);}.cls-6{font-size:10px;font-family:SansSerifBold, SansSerif;letter-spacing:0.01em;}.cls-6,.cls-7{fill:#fff;}.cls-7{font-size:20px;font-family:SansSerif;letter-spacing:-0.04em;}</style><linearGradient id="linear-gradient" x1="-328.63" y1="-978.45" x2="-328.99" y2="-977.78" gradientTransform="translate(5065.95 28316.79) scale(15.28 28.92)" gradientUnits="userSpaceOnUse"><stop offset="0" stop-color="#00a0ff"/><stop offset="0.01" stop-color="#00a1ff"/><stop offset="0.26" stop-color="#00beff"/><stop offset="0.51" stop-color="#00d2ff"/><stop offset="0.76" stop-color="#00dfff"/><stop offset="1" stop-color="#00e3ff"/></linearGradient><linearGradient id="linear-gradient-2" x1="-338.84" y1="-970.53" x2="-341.22" y2="-970.53" gradientTransform="translate(4115.81 9921.75) scale(11.96 10.19)" gradientUnits="userSpaceOnUse"><stop offset="0" stop-color="#ffe000"/><stop offset="0.41" stop-color="#ffbd00"/><stop offset="0.78" stop-color="orange"/><stop offset="1" stop-color="#ff9c00"/></linearGradient><linearGradient id="linear-gradient-3" x1="-320.17" y1="-974.6" x2="-321.53" y2="-973.53" gradientTransform="translate(6287.69 14836.22) scale(19.48 15.19)" gradientUnits="userSpaceOnUse"><stop offset="0" stop-color="#ff3a44"/><stop offset="1" stop-color="#c31162"/></linearGradient><linearGradient id="linear-gradient-4" x1="-321.22" y1="-974.89" x2="-320.61" y2="-974.41" gradientTransform="translate(6287.69 14849.06) scale(19.48 15.22)" gradientUnits="userSpaceOnUse"><stop offset="0" stop-color="#32a071"/><stop offset="0.07" stop-color="#2da771"/><stop offset="0.48" stop-color="#15cf74"/><stop offset="0.8" stop-color="#06e775"/><stop offset="1" stop-color="#00f076"/></linearGradient></defs><title>googlePlay_1</title><g id="Layer_2" data-name="Layer 2"><g id="Layer_1-2" data-name="Layer 1"><path class="cls-1" d="M4,0H196a4,4,0,0,1,4,4V56a4,4,0,0,1-4,4H4a4,4,0,0,1-4-4V4A4,4,0,0,1,4,0Z"/><path class="cls-2" d="M33.71,17.23v25.5a3,3,0,0,0,.6,1.8L49,30l-14.7-14.4A2,2,0,0,0,33.71,17.23Z"/><path class="cls-3" d="M49,30l4.8-5,6,3.5c1.6.9,1.4,2.4-.2,3.3l-6,3.3Z"/><path class="cls-4" d="M49,30l-14.7,14.4a2.22,2.22,0,0,0,2.5.6l17-10.2Z"/><path class="cls-5" d="M53.81,25.23,36.81,15c-1-.6-1.9.1-2.5.7L49,30Z"/><text class="cls-6" transform="translate(71.67 21.3)">GET IT ON</text><text class="cls-7" transform="translate(69.93 43.1)">Google Play</text></g></g></svg>