<svg xmlns="http://www.w3.org/2000/svg" viewBox="0 0 16.55 20.63"><defs><style>.cls-1,.cls-2{fill:#ccc;}.cls-1{fill-rule:evenodd;}</style></defs><title>mag</title><g id="Layer_2" data-name="Layer 2"><g id="Layer_1-2" data-name="Layer 1"><path class="cls-1" d="M16.43,0H.13A.13.13,0,0,0,0,.13V20.5a.13.13,0,0,0,.13.13H13.51a.11.11,0,0,0,.09,0l2.92-2.91a.16.16,0,0,0,0-.09V.13A.12.12,0,0,0,16.43,0ZM15,17.91,13.84,19V17.91Zm-2.06-.46V19.7H.93V.93H15.62V17H13.37A.47.47,0,0,0,12.91,17.45Z"/><path class="cls-1" d="M15.19,1.36H1.36V7.72H15.19ZM2.29,6.79V2.29h12v4.5Z"/><path class="cls-1" d="M2.84,16.3a1.49,1.49,0,1,0,1.49,1.49A1.49,1.49,0,0,0,2.84,16.3Zm.56,1.49a.56.56,0,1,1-.56-.56A.56.56,0,0,1,3.4,17.79Z"/><path class="cls-2" d="M4.2,8.15h1a.12.12,0,0,1,.12.12V9a.13.13,0,0,1-.12.13h-1A.13.13,0,0,1,4.08,9V8.28A.13.13,0,0,1,4.2,8.15Z"/><path class="cls-2" d="M11.33,8.15h3.74a.13.13,0,0,1,.13.13V9a.13.13,0,0,1-.12.13H11.33A.12.12,0,0,1,11.21,9V8.28A.13.13,0,0,1,11.33,8.15Z"/><rect class="cls-2" x="12.57" y="9.51" width="2.63" height="0.93" rx="0.13"/><rect class="cls-2" x="12.91" y="10.87" width="2.29" height="0.93" rx="0.13"/><rect class="cls-2" x="4.75" y="18.34" width="7.38" height="0.93" rx="0.13"/><rect class="cls-2" x="4.75" y="16.98" width="4.67" height="0.93" rx="0.13"/><path class="cls-2" d="M10,17h1.36a.13.13,0,0,1,.13.13v.68a.12.12,0,0,1-.12.12H10a.13.13,0,0,1-.13-.13v-.68A.13.13,0,0,1,10,17Z"/><rect class="cls-2" x="1.36" y="10.87" width="2.63" height="0.93" rx="0.13"/><rect class="cls-2" x="11.89" y="15.62" width="3.31" height="0.93" rx="0.13"/><rect class="cls-2" x="12.91" y="14.27" width="2.29" height="0.93" rx="0.13"/><rect class="cls-2" x="13.59" y="12.57" width="1.61" height="0.93" rx="0.13"/><path class="cls-1" d="M6.24,2.72H5.56A.46.46,0,0,0,5.12,3l-.24.71L4.64,3a.46.46,0,0,0-.44-.32H3.52a.47.47,0,0,0-.46.46V6.36H4V4l.45,1.36a.51.51,0,0,0,.23.27.5.5,0,0,0,.36,0,.42.42,0,0,0,.29-.29L5.77,4V6.36H6.7V3.18A.47.47,0,0,0,6.24,2.72Z"/><path class="cls-1" d="M9.3,2.72h-1a.47.47,0,0,0-.46.36l-.7,3.18.9.2.18-.78H9.38l.17.78.91-.2L9.75,3.08A.47.47,0,0,0,9.3,2.72Zm-.13,2H8.4l.25-1.11h.27Z"/><path class="cls-1" d="M10.87,3.18V5.9a.46.46,0,0,0,.46.46h2a.46.46,0,0,0,.47-.46V4.54a.46.46,0,0,0-.47-.46H12.23V5h.68v.42H11.8V3.65h2V2.72H11.33A.47.47,0,0,0,10.87,3.18Z"/><path class="cls-1" d="M1.48,10.44h2a.13.13,0,0,0,.13-.13v-2a.13.13,0,0,0-.13-.13h-2a.12.12,0,0,0-.12.13v2A.12.12,0,0,0,1.48,10.44ZM2.72,9.08v.43H2.29V9.08Z"/><rect class="cls-2" x="1.36" y="12.23" width="1.61" height="0.93" rx="0.13"/><path class="cls-1" d="M6.92,15.37l2.39-4.56L10,14.63l1.26-.21-1-5.7a.65.65,0,0,0-.53-.53.66.66,0,0,0-.67.34l-2.72,5.2a2.63,2.63,0,0,0-1.24-.57,2,2,0,0,0-2.46,1.31c-.16.93.69,1.84,1.89,2A2.05,2.05,0,0,0,6.92,15.37Z"/></g></g></svg>