<svg xmlns="http://www.w3.org/2000/svg" viewBox="0 0 93 18"><defs><style>.cls-1{fill:#fff;}</style></defs><title>mymoney</title><g id="Layer_2" data-name="Layer 2"><g id="Layer_1-2" data-name="Layer 1"><path class="cls-1" d="M4.19,18l1.09-4.4H8L6.93,18h3.22l1.1-4.4h2.33l.72-2.91H12l.87-3.44H15l.72-2.91H13.6L14.7,0H11.48l-1.1,4.34H7.63L8.73,0H5.51L4.41,4.34H2.14L1.42,7.25H3.68L2.8,10.69H.72L0,13.6H2.07L1,18Zm4.58-7.31H6l.87-3.44H9.64l-.87,3.44ZM30.21,18V10.11h1V18h3.53V0H31.23V6.61h-1V0H26.84V18Zm-12.5-.58,8.66-1V12.94l-4.85.55V.49H17.71Zm36.46-5.58V8.72H47.45V7.09H53.6V4.18h-12V2.85H53.51V0H37.41V7.09h6V8.72H36.74v3.12ZM53.79,18V15.09H41.52v-2.5H37.41V18ZM69,18V10.11h1V18h3.53V0H70.06V6.61H69V0H65.67V18Zm-12.5-.58,8.65-1V12.94l-4.84.55V.49H56.54V17.42ZM92.43,6.49V3.88h-12V2.56H92.34V0H76.24V6.49ZM93,10.25V7.44H75.57v2.81ZM92.62,18V15.29H80.46V14h12V11.41H76.24V18Z"/></g></g></svg>