<svg id="Layer_1" data-name="Layer 1" xmlns="http://www.w3.org/2000/svg" viewBox="0 0 46.2 8.7"><defs><style>.cls-1{fill-rule:evenodd;}</style></defs><title>naver</title><path class="cls-1" d="M6.2,0V4.3L3.2,0H0V8.6H3.2V4.3l3,4.3H9.4V0ZM42,3.6a1.08,1.08,0,0,1-.8.2h-.7V2.1h.7a2.39,2.39,0,0,1,.9.2.86.86,0,0,1,.3.6C42.3,3.3,42.2,3.5,42,3.6Zm1.6,1.8A2.38,2.38,0,0,0,45.5,3C45.5.8,43.7.1,41.4.1h-4V8.7h3.2V6l1.9,2.7h3.7L43.6,5.4ZM29.6,0h6.5V2.2H32.8v1h3V5.3h-3v1h3.4V8.5H29.6V0ZM14.4,5.5l.8-2.8h.1l.8,2.8ZM17,0H13.4L10,8.6h3.5l.3-1.1h2.6l.3,1.1h3.5L17,0Zm8.5,0L23.9,5.2h-.1L22.2,0H18.7l3.6,8.6h3L28.9,0Z"/></svg>