<svg xmlns="http://www.w3.org/2000/svg" viewBox="0 0 22.66 21.65"><defs><style>.cls-1{fill:#ccc;}</style></defs><title>newB</title><g id="Layer_2" data-name="Layer 2"><g id="Layer_1-2" data-name="Layer 1"><path class="cls-1" d="M22.37,11.5a.94.94,0,0,0,0-1.36L20.45,8.33a1,1,0,0,1-.28-.85l.49-2.59a1,1,0,0,0-.8-1.11l-2.62-.33a.92.92,0,0,1-.72-.53L15.39.54a.93.93,0,0,0-1.3-.42L11.78,1.38a.88.88,0,0,1-.45.11.91.91,0,0,1-.45-.11L8.57.11A1.06,1.06,0,0,0,8.12,0a.94.94,0,0,0-.85.54L6.14,2.92a.92.92,0,0,1-.72.53L2.8,3.78A1,1,0,0,0,2,4.89l.49,2.59a.94.94,0,0,1-.28.85L.29,10.14a.94.94,0,0,0,0,1.36l1.92,1.82a1,1,0,0,1,.28.85L2,16.76a.94.94,0,0,0,.8,1.1l2.62.34a.92.92,0,0,1,.72.53l1.13,2.38a.93.93,0,0,0,1.3.42l2.31-1.26a.92.92,0,0,1,.45-.12.89.89,0,0,1,.45.12l2.31,1.26a.93.93,0,0,0,1.3-.42l1.13-2.38a.92.92,0,0,1,.72-.53l2.62-.34a.94.94,0,0,0,.8-1.1l-.49-2.59a1,1,0,0,1,.28-.85ZM19.8,12.63a1.88,1.88,0,0,0-.55,1.71l.49,2.59-2.62.33a1.9,1.9,0,0,0-1.46,1.06L14.55,20.7l-2.32-1.26a1.88,1.88,0,0,0-1.8,0l-2.3,1.27L7,18.32a1.9,1.9,0,0,0-1.46-1.06l-2.61-.33.48-2.59a1.88,1.88,0,0,0-.55-1.71L.94,10.83,2.86,9A1.89,1.89,0,0,0,3.41,7.3L2.92,4.72l2.62-.34A1.88,1.88,0,0,0,7,3.32L8.12,1l2.31,1.26a1.88,1.88,0,0,0,1.8,0L14.54.94l1.12,2.38a1.88,1.88,0,0,0,1.46,1.06l2.61.33L19.25,7.3A1.89,1.89,0,0,0,19.8,9l1.92,1.8Z"/><polygon class="cls-1" points="7.65 8.55 7.4 8.55 7.4 8.8 7.4 11.16 5.73 8.66 5.65 8.55 5.52 8.55 4.97 8.55 4.72 8.55 4.72 8.8 4.72 12.85 4.72 13.1 4.97 13.1 5.48 13.1 5.73 13.1 5.73 12.85 5.73 10.49 7.41 12.99 7.48 13.1 7.61 13.1 8.16 13.1 8.41 13.1 8.41 12.85 8.41 8.8 8.41 8.55 8.16 8.55 7.65 8.55"/><path class="cls-1" d="M17.15,8.55H17l-.05.19-.58,2.37-.09-.33-.58-2-.05-.18h-1l-.05.18-.69,2.45-.57-2.44,0-.19H8.83V13.1h3.52v-1H9.86v-.88h2.25v-1H9.86V9.52h2.4V9l1.05,4,0,.18h.93l.05-.18.74-2.67.74,2.67,0,.18h.9l.05-.18,1.11-4.06L18,8.55h-.87Zm-.84,3.73h0q0-.33-.12-.69Q16.26,12,16.31,12.28Zm-2.49,0h0c-.05-.27-.11-.55-.18-.83C13.71,11.73,13.77,12,13.82,12.28Zm2.76.57h0l1.11-4Z"/></g></g></svg>