<svg xmlns="http://www.w3.org/2000/svg" xmlns:xlink="http://www.w3.org/1999/xlink" version="1.1" x="0px" y="0px" viewBox="0 0 60 75" enable-background="new 0 0 60 60" xml:space="preserve"><g><g><path d="M36.7893677,9.0655355l2.3899536,5.0469885c0.5831299,1.2314997,1.7380371,2.071022,3.0894165,2.2457104    l5.5265503,0.6965446l-1.0278931,5.4913902c-0.2501831,1.3366776,0.1903076,2.6925659,1.1784058,3.6269665l4.0593872,3.814743    l-4.0594482,3.8392467c-0.9880371,0.9343224-1.4285889,2.2901192-1.1784668,3.6268539l1.0421143,5.4719353l-5.5408936,0.7160988    c-1.3513184,0.1746445-2.5062866,1.0141106-3.0894775,2.2456207l-2.3668213,5.0393791l-4.9015503-2.6794777    C31.3265381,47.9282036,30.6658325,47.7594032,30,47.7593803c-0.6657104,0-1.326355,0.1687775-1.9105835,0.4880867    l-4.8787231,2.6870003l-2.3900146-5.0471191c-0.5831909-1.2314453-1.7380981-2.0709114-3.0893555-2.2455788l-5.5266113-0.6965561    l1.0278931-5.4913788c0.2501831-1.3367119-0.1903076-2.6926003-1.1783447-3.626976l-4.0595093-3.814724l4.0596924-3.8393555    c0.9879761-0.9344215,1.4284668-2.2902431,1.1782837-3.6267548l-1.0420532-5.4719334l5.5408325-0.7161007    c1.3513184-0.174633,2.5062866-1.0140991,3.0894775-2.2456102l2.3823853-5.0308819l4.8860474,2.6709814    c0.5842285,0.3193445,1.244873,0.4881449,1.9106445,0.4881449s1.326416-0.1687889,1.9105225-0.4880896L36.7893677,9.0655355     M23.197876,7.0745435c-0.7401733,0-1.4539795,0.4159026-1.7944946,1.1349587l-2.3899536,5.0468998    c-0.2890015,0.6102448-0.8685913,1.0315447-1.538269,1.1180887l-5.5408325,0.7160997    c-1.1299438,0.1460333-1.9048462,1.2118673-1.6952515,2.3317556l1.027771,5.4916    c0.1240234,0.6625233-0.0969849,1.3426552-0.5866699,1.8057899l-4.0596313,3.8392982    c-0.8273926,0.7824898-0.8273926,2.0994339,0,2.8819122l4.0595093,3.8390331    c0.4897461,0.4631462,0.7106934,1.143322,0.5866699,1.8058548l-1.0278931,5.4914131    c-0.2095947,1.1198997,0.5652466,2.1857529,1.6951904,2.33181l5.5408936,0.7162094    c0.6696167,0.0865555,1.2492065,0.5078583,1.538208,1.118103l2.3900146,5.0470657    c0.3405151,0.7191658,1.0541382,1.134964,1.7944336,1.134964c0.3207397,0,0.6466675-0.0781479,0.9492188-0.2435188    l4.9019165-2.6794777C29.3451538,49.8403854,29.6725464,49.7593803,30,49.7593842s0.6549072,0.0810165,0.9512939,0.2430382    l4.9015503,2.6794891c0.3026733,0.165451,0.628418,0.2435493,0.9493408,0.2435493    c0.7401733,0,1.4539185-0.4159012,1.7944336-1.1349487l2.3899536-5.0469093    c0.2890015-0.6102448,0.8686523-1.0315437,1.538269-1.1180916l5.5408936-0.7160988    c1.1299438-0.1460342,1.9047852-1.2118645,1.6951904-2.3317566l-1.027771-5.4916    c-0.1239624-0.6625214,0.0969849-1.3426552,0.586731-1.8057861l4.0595703-3.8393002    c0.8273926-0.7824898,0.8273926-2.0994339,0-2.8819122l-4.0594482-3.8390331    c-0.4897461-0.4631443-0.7107544-1.143322-0.586731-1.8058548l1.0278931-5.4914227    c0.2096558-1.1198883-0.5651855-2.1857443-1.6951294-2.3318005l-5.5408936-0.7162113    c-0.6696167-0.0865555-1.2492676-0.5078554-1.538208-1.1180992L38.5969238,8.209569    c-0.3405151-0.7191668-1.0541382-1.1350341-1.7944336-1.1349659c-0.3208008,0.0000296-0.6467285,0.0781488-0.9492798,0.2435212    l-4.9019165,2.6794772c-0.2963867,0.1620226-0.6237793,0.2430267-0.9512329,0.2430267s-0.6549072-0.0810204-0.9512939-0.2430487    l-4.9016113-2.6794887C23.8444824,7.1526418,23.5187988,7.0745435,23.197876,7.0745435L23.197876,7.0745435z"/></g><g><g><polygon points="23.2939453,25.7050838 22.2041016,25.7050838 22.2041016,32.4492226 17.6923828,25.7050838      16.5263672,25.7050838 16.5263672,34.2949257 17.6162109,34.2949257 17.6162109,27.5449238 22.1279297,34.2949257      23.2939453,34.2949257 23.2939453,25.7050838    "/></g><g><polygon points="31.4384766,25.7050838 25.2275391,25.7050838 25.2275391,34.2949257 31.6376953,34.2949257      31.6376953,33.2812538 26.3642578,33.2812538 26.3642578,30.3574238 31.1162109,30.3574238 31.1162109,29.3496132      26.3642578,29.3496132 26.3642578,26.7187538 31.4384766,26.7187538 31.4384766,25.7050838    "/></g><g><path d="M43.4736328,25.7050838h-1.1425781l-1.3476563,5.5195293c-0.1757813,0.7031212-0.3183594,1.3261719-0.4277344,1.8691406     c-0.1367188-0.9492188-0.359375-1.9628906-0.6679688-3.0410194l-1.2304688-4.3476505h-1.3710938l-1.6347656,5.8007793     c-0.0390625,0.1406212-0.1679688,0.6699219-0.3867188,1.5878906c-0.1015625-0.5820313-0.2226563-1.1679707-0.3632813-1.7578106     l-1.3066406-5.6308594h-1.1660156l2.2792969,8.5898418h1.1601563l1.8222656-6.5449219     c0.078125-0.2773495,0.1621094-0.6132793,0.2519531-1.0078106c0.0273438,0.125,0.1171875,0.4609299,0.2695313,1.0078106     l1.8105469,6.5449219h1.0957031L43.4736328,25.7050838L43.4736328,25.7050838z"/></g></g></g><text x="0" y="75" fill="#000000" font-size="5px" font-weight="bold" font-family="'Helvetica Neue', Helvetica, Arial-Unicode, Arial, Sans-serif">Created by DinosoftLab</text><text x="0" y="80" fill="#000000" font-size="5px" font-weight="bold" font-family="'Helvetica Neue', Helvetica, Arial-Unicode, Arial, Sans-serif">from the Noun Project</text></svg>