<svg xmlns:dc="http://purl.org/dc/elements/1.1/" xmlns:cc="http://creativecommons.org/ns#" xmlns:rdf="http://www.w3.org/1999/02/22-rdf-syntax-ns#" xmlns:svg="http://www.w3.org/2000/svg" xmlns="http://www.w3.org/2000/svg" xmlns:sodipodi="http://sodipodi.sourceforge.net/DTD/sodipodi-0.dtd" xmlns:inkscape="http://www.inkscape.org/namespaces/inkscape" version="1.1" x="0px" y="0px" viewBox="0 0 100 125"><g transform="translate(0,-952.36218)"><path style="text-indent:0;text-transform:none;direction:ltr;block-progression:tb;baseline-shift:baseline;color:#000000;enable-background:accumulate;" d="M 74.90625 20.96875 A 2.0001996 2.0001996 0 0 0 73.5 24.3125 L 78.5625 30.03125 C 77.389805 30.048083 75.962192 30.067805 74.3125 30.125 C 70.649373 30.25201 66.396478 30.4684 63.59375 31.03125 C 57.048247 32.34573 52.897248 36.96743 49.28125 42.9375 A 2.0124733 2.0124733 0 1 0 52.71875 45.03125 C 56.123076 39.41066 59.279527 35.96706 64.40625 34.9375 C 66.603522 34.49624 70.850627 34.24936 74.4375 34.125 C 76.012905 34.070379 77.360755 34.048566 78.5 34.03125 L 73.5 39.65625 A 2.003476 2.003476 0 1 0 76.5 42.3125 L 84.5 33.3125 A 2.0001996 2.0001996 0 0 0 84.5 30.65625 L 76.5 21.65625 A 2.0001996 2.0001996 0 0 0 74.90625 20.96875 z M 16.8125 30 A 2.0021961 2.0021961 0 1 0 17 34 C 17 34 19.730781 34.002 22.9375 34.125 C 26.144219 34.24836 29.918367 34.54219 31.5 34.9375 C 37.73326 36.49542 41.902675 43.54308 46.21875 51.21875 C 48.376787 55.05655 50.562231 58.97445 53.28125 62.21875 C 56.000269 65.46295 59.318996 68.079 63.59375 68.9375 C 66.396485 69.5003 70.649372 69.748 74.3125 69.875 C 75.950127 69.931776 77.362098 69.983083 78.53125 70 L 73.5 75.65625 A 2.0034926 2.0034926 0 1 0 76.5 78.3125 L 84.5 69.3125 A 2.0001996 2.0001996 0 0 0 84.5 66.65625 L 76.5 57.65625 A 2.0001996 2.0001996 0 0 0 74.90625 56.96875 A 2.0001996 2.0001996 0 0 0 73.5 60.3125 L 78.53125 66 C 77.388168 65.982754 76.025084 65.930016 74.4375 65.875 C 70.850628 65.7507 66.603515 65.47255 64.40625 65.03125 C 61.269434 64.40135 58.720246 62.49185 56.34375 59.65625 C 53.967254 56.82075 51.841246 53.0802 49.6875 49.25 C 45.380007 41.58964 40.94933 33.1743 32.5 31.0625 C 30.081633 30.45807 26.355781 30.25169 23.0625 30.125 C 19.769219 29.99831 17 30 17 30 A 2.0002 2.0002 0 0 0 16.8125 30 z M 43.875 52.96875 A 2.0002 2.0002 0 0 0 42.28125 53.9375 C 38.844013 59.6193 36.23782 63.84715 31.5 65.03125 C 29.918334 65.42655 26.14422 65.7516 22.9375 65.875 C 19.73078 65.9984 17 66 17 66 A 2.0002 2.0002 0 1 0 17 70 C 17 70 19.769223 70 23.0625 69.875 C 26.355777 69.7483 30.081652 69.5419 32.5 68.9375 C 39.04364 67.302 42.289865 61.69925 45.71875 56.03125 A 2.0002 2.0002 0 0 0 43.875 52.96875 z " transform="translate(0,952.36218)" fill="#000000" fill-opacity="1" stroke="none" marker="none" visibility="visible" display="inline" overflow="visible"/></g><text x="0" y="115" fill="#000000" font-size="5px" font-weight="bold" font-family="'Helvetica Neue', Helvetica, Arial-Unicode, Arial, Sans-serif">Created by iconsphere</text><text x="0" y="120" fill="#000000" font-size="5px" font-weight="bold" font-family="'Helvetica Neue', Helvetica, Arial-Unicode, Arial, Sans-serif">from the Noun Project</text></svg>