<svg xmlns="http://www.w3.org/2000/svg" viewBox="0 0 100.37 14.92"><defs><style>.cls-1{fill:#fff;}</style></defs><title>onstage</title><g id="Layer_2" data-name="Layer 2"><g id="Layer_1-2" data-name="Layer 1"><path class="cls-1" d="M7.87,0C2.94,0,0,2.36,0,6.31V8.62c0,4,2.87,6.3,7.87,6.3s7.88-2.3,7.88-6.3V6.31C15.75,2.36,12.8,0,7.87,0ZM3.72,8.3V6.62C3.72,4,5,2.77,7.87,2.77S12,4,12,6.62V8.3c0,2.63-1.32,3.85-4.15,3.85S3.72,10.93,3.72,8.3Z"/><path class="cls-1" d="M27.37.21h-.25v9.7a8.77,8.77,0,0,0-.7-1.11L20.28.32,20.2.21H16.15v14.5h3.5V5.05a9.12,9.12,0,0,0,.67,1l6.17,8.5.08.11h4.05V.21H27.37Z"/><path class="cls-1" d="M61.07,2.81V.21H46.8V.93A12.67,12.67,0,0,0,41.67,0C36.73,0,35,2.26,35,4.19v.25c0,3.31,3.28,3.85,6.18,4.33l.41.07c2.13.37,3,.85,3,1.72v.21c0,.89-1.13,1.42-3,1.42a9.28,9.28,0,0,1-4.91-1.32l-.2-.12-.14.18-1.55,2-.17.21.23.15a13.24,13.24,0,0,0,6.59,1.65c4.43,0,6.87-1.54,6.87-4.34v-.26c0-2.24-1.81-3.55-5.88-4.26L41.88,6c-2-.34-3.23-.6-3.23-1.6V4.15c0-.6,1-1.44,3.07-1.44a7.84,7.84,0,0,1,4,.85l.19.09L46,3.49l.81-1v.35h5.3v11.9h3.7V2.81h5.27Z"/><path class="cls-1" d="M67.57.35,67.5.21H64.32l-.07.15-6.7,14-.17.36h3.83l.06-.15L63,10.86h5.76l1.68,3.7.06.15h4l-.17-.36ZM64.13,8.29,65.2,5.78c.31-.68.48-1.08.65-1.53.18.45.38.91.67,1.54l1.07,2.5Z"/><path class="cls-1" d="M80.42,6.33h-.25V8.9H84v2.92a9.24,9.24,0,0,1-2.7.35c-3.2,0-4.75-1.27-4.75-3.88V6.85c0-2.91,1.32-4.1,4.55-4.1a7.44,7.44,0,0,1,4.28,1.18l.18.12.15-.16L87.38,2l.2-.22-.25-.16A11.61,11.61,0,0,0,81.05,0C75.81,0,72.8,2.29,72.8,6.29v2.5c0,3.9,3,6.13,8.3,6.13a15.05,15.05,0,0,0,6.39-1.31l.13-.07V6.33h-7.2Z"/><polygon class="cls-1" points="100.12 12.15 91.77 12.15 91.77 8.55 99.42 8.55 99.67 8.55 99.67 8.3 99.67 6.29 99.67 6.04 99.42 6.04 91.77 6.04 91.77 2.77 99.95 2.77 100.2 2.77 100.2 2.52 100.2 0.46 100.2 0.21 99.95 0.21 88.35 0.21 88.1 0.21 88.1 0.46 88.1 14.46 88.1 14.71 88.35 14.71 100.12 14.71 100.37 14.71 100.37 14.46 100.37 12.4 100.37 12.15 100.12 12.15"/></g></g></svg>