<svg xmlns="http://www.w3.org/2000/svg" viewBox="0 0 21.18 21.13"><defs><style>.cls-1{fill:#231f20;}</style></defs><title>person_1</title><g id="Layer_2" data-name="Layer 2"><g id="Layer_1-2" data-name="Layer 1"><path class="cls-1" d="M10.59,1a5.11,5.11,0,1,1-5.13,5.1A5.12,5.12,0,0,1,10.59,1m0-.25A5.36,5.36,0,1,0,16,6.14,5.37,5.37,0,0,0,10.59.79Z"/><path d="M10.59,12.16a6,6,0,1,1,6-6A6,6,0,0,1,10.59,12.16Zm0-11a5,5,0,1,0,5,5A5,5,0,0,0,10.59,1.16Z"/><path class="cls-1" d="M10.59.25A5.89,5.89,0,1,1,4.68,6.14,5.9,5.9,0,0,1,10.59.25m0,11A5.11,5.11,0,1,0,5.46,6.14a5.12,5.12,0,0,0,5.13,5.11M10.59,0a6.14,6.14,0,1,0,6.16,6.14A6.16,6.16,0,0,0,10.59,0Zm0,11a4.86,4.86,0,1,1,4.87-4.86A4.88,4.88,0,0,1,10.59,11Z"/><path d="M.65,21a.48.48,0,0,1-.29-.09.5.5,0,0,1-.24-.43v-.7A6.83,6.83,0,0,1,7,13h7.28a6.82,6.82,0,0,1,6.82,6.81v.7a.52.52,0,0,1-.52.52.52.52,0,0,1-.52-.52v-.7A5.78,5.78,0,0,0,14.23,14H7a5.79,5.79,0,0,0-5.79,5.77v.71A.51.51,0,0,1,.68,21Z"/><path class="cls-1" d="M14.23,13.1a6.7,6.7,0,0,1,6.7,6.68v.7a.39.39,0,0,1-.4.39.38.38,0,0,1-.39-.39v-.7a5.91,5.91,0,0,0-5.91-5.9H7A5.91,5.91,0,0,0,1,19.78v.71a.4.4,0,0,1-.37.39h0a.41.41,0,0,1-.22-.07.39.39,0,0,1-.18-.33v-.7A6.7,6.7,0,0,1,7,13.1h7.28m0-.25H7A7,7,0,0,0,0,19.78v.7A.65.65,0,0,0,.29,21a.64.64,0,0,0,.36.11v-.25l0,.24a.63.63,0,0,0,.59-.63v-.71A5.67,5.67,0,0,1,7,14.13h7.28a5.67,5.67,0,0,1,5.66,5.65v.7a.65.65,0,0,0,1.29,0v-.7a7,7,0,0,0-6.95-6.93Z"/></g></g></svg>