<svg xmlns="http://www.w3.org/2000/svg" viewBox="0 0 67 66.04"><defs><style>.cls-1{fill:#7c7c7c;}</style></defs><title>replay_1</title><g id="Layer_2" data-name="Layer 2"><g id="Layer_1-2" data-name="Layer 1"><path class="cls-1" d="M67,32.24a3.1,3.1,0,0,0-3.12-2.92,3,3,0,0,0-3.05,3A15.56,15.56,0,0,1,45.29,47.91H13.19l6.7-6.7a3.08,3.08,0,1,0-4.36-4.35l-11.89,12a3,3,0,0,0,0,4.35l12,12a3,3,0,0,0,4.29,0,3.07,3.07,0,0,0,0-4.36L13.17,54H45.29A21.74,21.74,0,0,0,67,32.3v-.06Zm-2.7-1.88a2.08,2.08,0,0,1,1,.54,2.08,2.08,0,0,0-1-.54,2.72,2.72,0,0,0-.42,0h0A2.72,2.72,0,0,1,64.3,30.36Z"/><path class="cls-1" d="M6.1,33.6A15.56,15.56,0,0,1,21.64,18.06h32.1L47,24.76a3.09,3.09,0,0,0,0,4.36,3.14,3.14,0,0,0,2.15.9,3.1,3.1,0,0,0,2.14-.91l12-12a3,3,0,0,0,0-4.35L51.4.91A3.08,3.08,0,1,0,47,5.26l6.7,6.7h-32A21.74,21.74,0,0,0,0,33.67a3,3,0,0,0,3.05,3A3.09,3.09,0,0,0,6.1,33.6Zm.31-6.45a16.24,16.24,0,0,1,1.53-2.81A16.24,16.24,0,0,0,6.41,27.15Zm4.73-6.32a17,17,0,0,1,2.64-1.78A17,17,0,0,0,11.14,20.83Zm5.6-3a16.56,16.56,0,0,1,4.9-.74h0A16.56,16.56,0,0,0,16.74,17.8ZM49.19,29a2,2,0,0,0,.74-.15A2,2,0,0,1,49.19,29Z"/></g></g></svg>