<svg xmlns="http://www.w3.org/2000/svg" viewBox="0 0 50.86 44.42"><defs><style>.cls-1{fill:#4fc000;}.cls-2{fill:#fff;}</style></defs><title>Asset 3</title><g id="Layer_2" data-name="Layer 2"><g id="Layer_1-2" data-name="Layer 1"><rect class="cls-1" x="44.9" y="18.89" width="5.96" height="11.8" rx="1"/><rect class="cls-1" y="18.89" width="5.96" height="11.8" rx="1"/><path class="cls-1" d="M37.79,11.79H26.34V7.58a3.85,3.85,0,1,0-1.86,0v4.21H13a5,5,0,0,0-5,5v16a5,5,0,0,0,5,5h8.56l3.82,6.61,3.82-6.61h8.56a5,5,0,0,0,5-5v-16A5,5,0,0,0,37.79,11.79Z"/><circle class="cls-2" cx="19.35" cy="24.8" r="3.33"/><circle class="cls-2" cx="32.51" cy="24.8" r="3.33"/></g></g></svg>