<svg xmlns="http://www.w3.org/2000/svg" viewBox="0 0 70.6 58.53"><defs><style>.cls-1{fill:#7c7c7c;}</style></defs><title>shuffle_1</title><g id="Layer_2" data-name="Layer 2"><g id="Layer_1-2" data-name="Layer 1"><path class="cls-1" d="M62,36.77A2.23,2.23,0,0,0,60.34,36h-.1a2.25,2.25,0,0,0-1.58,3.76L63.31,45l-2.73-.08-.79,0a74.89,74.89,0,0,1-10-.84c-2.86-.58-5.37-2.26-7.92-5.29a71.16,71.16,0,0,1-6.63-10.37l-.49-.88C30.52,20,26.14,12.16,17.91,10.1a54.24,54.24,0,0,0-9.49-.94C5.2,9,2.47,9,2.35,9h-.2a2.22,2.22,0,0,0-1.56.74A2.2,2.2,0,0,0,0,11.39a2.26,2.26,0,0,0,2.25,2.15h.11s2.75,0,5.91.13a58.58,58.58,0,0,1,8.52.8c5.9,1.48,9.92,7.91,14.56,16.16l.12.22a70.44,70.44,0,0,0,7,10.82c3.19,3.81,6.6,6,10.45,6.81a72.91,72.91,0,0,0,10.76.94h.41l3.27.1-4.67,5.25a2.25,2.25,0,1,0,3.36,3l8-9a2.25,2.25,0,0,0,0-3Zm-1.69-.52.21,0-.3,0Zm1.51.69a2.35,2.35,0,0,0-.33-.3A2.35,2.35,0,0,1,61.85,36.94Zm-.46-.37a1.58,1.58,0,0,0-.24-.15A1.58,1.58,0,0,1,61.39,36.57Zm-.41-.2-.25-.08ZM8.41,9.41l-.6,0Zm-.87,0h0Zm-.72,0h0Zm-.47,0h0Zm-.47,0h0Zm-.53,0h0Zm-.52,0h0Zm-.47,0h0Zm-.42,0h0Zm-.33,0h0Zm-.3,0h0ZM3,9.29H3Zm-.25,0h0Zm-.15,0h0Zm-.32,0h0Zm-2,2.1a2.63,2.63,0,0,0,.06.39A2.63,2.63,0,0,1,.25,11.38Zm.1.52.09.24Zm.17.37a2.12,2.12,0,0,0,.12.2A2.12,2.12,0,0,1,.52,12.27Zm.22.32.15.16Zm1.51.7-.17,0a1.22,1.22,0,0,0,.27,0ZM1,12.85l.17.13Zm.32.21.19.09Zm.36.14.2.05ZM60.19,58.26h.15ZM59,57.77a2.26,2.26,0,0,0,.31.23A2.26,2.26,0,0,1,59,57.77Zm.43.28.23.11Zm.37.15.22,0Zm.81,0,.17,0Zm.4-.1.15-.06Zm.39-.19a.67.67,0,0,0,.11-.07A.67.67,0,0,1,61.41,58Z"/><path class="cls-1" d="M30.58,32.34A2.33,2.33,0,0,0,29.37,32H29.2a2.25,2.25,0,0,0-1.79,1.09c-3.31,5.48-5.93,9.81-10.62,11a58.36,58.36,0,0,1-8.52.84C5.11,45,2.37,45,2.35,45h0a2.25,2.25,0,0,0-.06,4.5h.06s2.81,0,6.07-.12a53.22,53.22,0,0,0,9.49-.95c6.48-1.62,9.7-7,13.12-12.6l.25-.42A2.26,2.26,0,0,0,30.58,32.34Zm-1.21-.09a1.86,1.86,0,0,1,.33,0,2.59,2.59,0,0,0-.48,0Zm1.07.3a2.21,2.21,0,0,0-.55-.23A2.21,2.21,0,0,1,30.44,32.55ZM2.35,45.28l-.23,0,.2,0Zm-.42,0-.21.06Zm-.37.11-.2.11Zm-.34.18L1,45.75Zm-.3.24c-.06.06-.1.12-.15.18S.86,45.91.92,45.85Zm-.56,1a2.71,2.71,0,0,0,0,.4A2.71,2.71,0,0,1,.36,46.85Zm.31-.7a1.28,1.28,0,0,0-.11.2A1.28,1.28,0,0,1,.67,46.15Zm-.19.33c0,.08,0,.16-.08.25C.43,46.64.45,46.56.48,46.48Zm1.84,2.8h0Z"/><path class="cls-1" d="M35.17,25.2a2.2,2.2,0,0,0,1.17.33,2.26,2.26,0,0,0,1.94-1.09c3.26-5.38,6.33-8.93,11.52-10a79.68,79.68,0,0,1,10-.81c1.29-.05,2.4-.07,3.49-.09l-4.62,5.2A2.26,2.26,0,0,0,58.85,22,2.25,2.25,0,0,0,62,21.76l8-9a2.25,2.25,0,0,0,0-3l-8-9A2.23,2.23,0,0,0,60.34,0h-.1a2.22,2.22,0,0,0-1.56.72,2.25,2.25,0,0,0,0,3l4.7,5.31c-1,0-2.31,0-3.71.09a76,76,0,0,0-10.76.91c-7.22,1.45-11.37,6.89-14.48,12A2.26,2.26,0,0,0,35.17,25.2Zm1.09.07h0Zm-.5-.08.13,0Zm1.9-.41.1-.09Zm-.83.44.07,0Zm.43-.17.13-.07ZM62,13.35l-2.2.06,2.2-.06,1.87,0ZM60.2,22.26h0ZM59,21.77a2.26,2.26,0,0,0,.31.23A2.26,2.26,0,0,1,59,21.77Zm.43.28a1.15,1.15,0,0,0,.23.1A1.15,1.15,0,0,1,59.45,22.05Zm.37.14.22,0Zm.81,0,.17,0Zm.4-.1.15-.05Zm.39-.19a.67.67,0,0,0,.11-.07A.67.67,0,0,1,61.42,22ZM60.34.25l.2,0-.29,0Zm1.51.69a2.35,2.35,0,0,0-.33-.3A2.35,2.35,0,0,1,61.85.94ZM61.4.57c-.09,0-.17-.11-.26-.15C61.23.46,61.31.52,61.4.57ZM61,.37,60.73.29Z"/></g></g></svg>