<?xml version="1.0" encoding="utf-8"?>
<!-- Generator: Adobe Illustrator 25.2.3, SVG Export Plug-In . SVG Version: 6.00 Build 0)  -->
<svg version="1.1" id="Layer_1" xmlns="http://www.w3.org/2000/svg" xmlns:xlink="http://www.w3.org/1999/xlink" x="0px" y="0px"
	 viewBox="0 0 20 16" style="enable-background:new 0 0 20 16;" xml:space="preserve">
<style type="text/css">
	.st0{fill-rule:evenodd;clip-rule:evenodd;fill:#FFFFFF;}
</style>
<g id="Layer_2_1_">
	<g id="Layer_1-2">
		<path class="st0" d="M0.2,7h1.6C1.9,7,2,6.9,2,6.8V2.2C2,2.1,1.9,2,1.8,2H0.2C0.1,2,0,2.1,0,2.2v4.6C0,6.9,0.1,7,0.2,7 M3.2,10
			h1.6C4.9,10,5,9.9,5,9.8V0.2C5,0.1,4.9,0,4.8,0H3.2C3.1,0,3,0.1,3,0.2v9.6C3,9.9,3.1,10,3.2,10 M6.2,13h1.6C7.9,13,8,12.9,8,12.8
			V3.2C8,3.1,7.9,3,7.8,3H6.2C6.1,3,6,3.1,6,3.2v9.6C6,12.9,6.1,13,6.2,13 M12.2,13h1.6c0.1,0,0.2-0.1,0.2-0.2V3.2
			C14,3.1,13.9,3,13.8,3h-1.6C12.1,3,12,3.1,12,3.2v9.6C12,12.9,12.1,13,12.2,13 M15.2,10h1.6c0.1,0,0.2-0.1,0.2-0.2V0.2
			C17,0.1,16.9,0,16.8,0h-1.6C15.1,0,15,0.1,15,0.2v9.6C15,9.9,15.1,10,15.2,10"/>
		<path class="st0" d="M19.8,7C19.9,7,20,6.9,20,6.8V2.2C20,2.1,19.9,2,19.8,2h-1.6C18.1,2,18,2.1,18,2.2v4.6C18,6.9,18.1,7,18.2,7
			H19.8z"/>
		<path class="st0" d="M9.2,16h1.6c0.1,0,0.2-0.1,0.2-0.2V6.2C11,6.1,10.9,6,10.8,6H9.2C9.1,6,9,6.1,9,6.2v9.6C9,15.9,9.1,16,9.2,16
			"/>
	</g>
</g>
</svg>
