<svg xmlns="http://www.w3.org/2000/svg" viewBox="0 0 20 16"><defs><style>.cls-1{fill:#ccc;fill-rule:evenodd;}</style></defs><title>Asset 1</title><g id="Layer_2" data-name="Layer 2"><g id="Layer_1-2" data-name="Layer 1"><path class="cls-1" d="M.2,7H1.8A.22.22,0,0,0,2,6.8V2.2A.22.22,0,0,0,1.8,2H.2a.22.22,0,0,0-.2.2V6.8A.22.22,0,0,0,.2,7m3,3H4.8A.22.22,0,0,0,5,9.8V.2A.22.22,0,0,0,4.8,0H3.2A.22.22,0,0,0,3,.2V9.8a.22.22,0,0,0,.2.2m3,3H7.8a.22.22,0,0,0,.2-.2V3.2A.22.22,0,0,0,7.8,3H6.2a.22.22,0,0,0-.2.2v9.6a.22.22,0,0,0,.2.2m6,0h1.6a.22.22,0,0,0,.2-.2V3.2a.22.22,0,0,0-.2-.2H12.2a.22.22,0,0,0-.2.2v9.6a.22.22,0,0,0,.2.2m3-3h1.6a.22.22,0,0,0,.2-.2V.2a.22.22,0,0,0-.2-.2H15.2a.22.22,0,0,0-.2.2V9.8a.22.22,0,0,0,.2.2"/><path class="cls-1" d="M19.8,7a.22.22,0,0,0,.2-.2V2.2a.22.22,0,0,0-.2-.2H18.2a.22.22,0,0,0-.2.2V6.8a.22.22,0,0,0,.2.2Z"/><path class="cls-1" d="M9.2,16h1.6a.22.22,0,0,0,.2-.2V6.2a.22.22,0,0,0-.2-.2H9.2a.22.22,0,0,0-.2.2v9.6a.22.22,0,0,0,.2.2"/></g></g></svg>