<svg xmlns="http://www.w3.org/2000/svg" viewBox="0 0 70 21.74"><defs><style>.cls-1{fill:#fff;}</style></defs><title>vibe_fff</title><g id="Layer_2" data-name="Layer 2"><g id="Layer_1-2" data-name="Layer 1"><polygon class="cls-1" points="17.32 0 16.87 0 16.71 0.42 11.19 14.78 5.87 0.43 5.72 0 5.26 0 0.97 0 0 0 0.36 0.9 8.67 21.33 8.83 21.74 9.27 21.74 12.87 21.74 13.31 21.74 13.48 21.34 22 0.9 22.37 0 21.39 0 17.32 0"/><polygon class="cls-1" points="24.79 0 24.14 0 24.14 0.65 24.14 21.08 24.14 21.74 24.79 21.74 28.8 21.74 29.45 21.74 29.45 21.08 29.45 0.65 29.45 0 28.8 0 24.79 0"/><path class="cls-1" d="M48.3,10.22a4.51,4.51,0,0,0,2.11-4V5.64C50.41,1.9,47.8,0,42.65,0H33.23V21.74H43.62c6.81,0,7.83-3.79,7.83-6V15A4.79,4.79,0,0,0,48.3,10.22ZM45,6.35c0,1.79-.85,2-4.23,2H38.51v-4h2.42c3.81,0,4.1.63,4.1,1.53Zm-6.52,6.23h2.38c4.78,0,5.15.87,5.15,2.1v.62c0,1.6-.66,2.13-4.55,2.13h-3Z"/><polygon class="cls-1" points="69.35 17.43 59.23 17.43 59.23 12.75 68.47 12.75 69.12 12.75 69.12 12.1 69.12 9.15 69.12 8.5 68.47 8.5 59.23 8.5 59.23 4.31 69.13 4.31 69.78 4.31 69.78 3.66 69.78 0.65 69.78 0 69.13 0 54.59 0 53.94 0 53.94 0.65 53.94 21.08 53.94 21.74 54.59 21.74 69.35 21.74 70 21.74 70 21.08 70 18.08 70 17.43 69.35 17.43"/></g></g></svg>