<?xml version="1.0" encoding="utf-8"?>
<!-- Generator: Adobe Illustrator 25.2.3, SVG Export Plug-In . SVG Version: 6.00 Build 0)  -->
<svg version="1.1" id="logos" xmlns="http://www.w3.org/2000/svg" xmlns:xlink="http://www.w3.org/1999/xlink" x="0px" y="0px"
	 viewBox="0 0 125 40" style="enable-background:new 0 0 125 40;" xml:space="preserve">
<style type="text/css">
	.st0{fill:#FFFFFF;}
	.st1{fill:none;}
</style>
<g>
	<g>
		<path class="st0" d="M63.7,22.9L58.8,9.2c-0.1-0.2-0.3-0.4-0.5-0.4h-5.1c-0.4,0-0.7,0.4-0.5,0.8L61,30.8c0.1,0.2,0.3,0.4,0.5,0.4
			h4.3c0.2,0,0.5-0.1,0.5-0.4l8.4-21.1c0.2-0.4-0.1-0.8-0.5-0.8h-5.1c-0.2,0-0.5,0.2-0.5,0.4L63.7,22.9z"/>
		<path class="st0" d="M79.2,31.1h4.6c0.3,0,0.6-0.3,0.6-0.6V9.4c0-0.3-0.3-0.6-0.6-0.6h-4.6c-0.3,0-0.6,0.3-0.6,0.6v21.1
			C78.7,30.9,78.9,31.1,79.2,31.1"/>
		<path class="st0" d="M125,13.2V9.4c0-0.3-0.3-0.6-0.6-0.6h-13.5c-0.3,0-0.6,0.3-0.6,0.6v21.1c0,0.3,0.3,0.6,0.6,0.6h13.5
			c0.3,0,0.6-0.3,0.6-0.6v-3.7c0-0.3-0.3-0.6-0.6-0.6h-8.7v-4h8c0.3,0,0.6-0.3,0.6-0.6v-3.5c0-0.3-0.3-0.6-0.6-0.6h-8v-3.8h8.7
			C124.7,13.8,125,13.5,125,13.2"/>
		<path class="st0" d="M102.8,19.5c0,0,2.9-1.7,2.9-5c0-3.3-2.3-5.7-6.1-5.7c0,0,0,0,0,0v0h-9.3c-0.3,0-0.6,0.3-0.6,0.6v21.1
			c0,0.3,0.3,0.6,0.6,0.6h9.3c3.8,0,6.6-1.8,6.6-6.1C106.3,20.7,102.8,19.5,102.8,19.5 M95.2,13.3h2.8c0.8,0,2.3,0.4,2.3,2.3
			c0,1.9-1.1,2.4-1.9,2.4h-3.2V13.3z M98.5,26.7h-3.2V22h3c1,0,2.5,0.3,2.5,2.3C100.7,26.6,99,26.7,98.5,26.7"/>
		<path class="st0" d="M0.4,17.7h3.7c0.2,0,0.4-0.2,0.4-0.4V7.6c0-0.2-0.2-0.4-0.4-0.4H0.4C0.2,7.2,0,7.3,0,7.6v9.7
			C0,17.5,0.2,17.7,0.4,17.7"/>
		<path class="st0" d="M6.5,23.8h3.7c0.2,0,0.4-0.2,0.4-0.4V3.7c0-0.2-0.2-0.4-0.4-0.4H6.5c-0.2,0-0.4,0.2-0.4,0.4v19.7
			C6.1,23.6,6.3,23.8,6.5,23.8"/>
		<path class="st0" d="M12.7,30.1h3.7c0.2,0,0.4-0.2,0.4-0.4V10c0-0.2-0.2-0.4-0.4-0.4h-3.7c-0.2,0-0.4,0.2-0.4,0.4v19.7
			C12.3,29.9,12.4,30.1,12.7,30.1"/>
		<path class="st0" d="M24.9,30.1h3.7c0.2,0,0.4-0.2,0.4-0.4V10c0-0.2-0.2-0.4-0.4-0.4h-3.7c-0.2,0-0.4,0.2-0.4,0.4v19.7
			C24.5,29.9,24.7,30.1,24.9,30.1"/>
		<path class="st0" d="M31.1,23.8h3.7c0.2,0,0.4-0.2,0.4-0.4V3.7c0-0.2-0.2-0.4-0.4-0.4h-3.7c-0.2,0-0.4,0.2-0.4,0.4v19.7
			C30.7,23.6,30.8,23.8,31.1,23.8"/>
		<path class="st0" d="M37.2,17.7h3.7c0.2,0,0.4-0.2,0.4-0.4V7.6c0-0.2-0.2-0.4-0.4-0.4h-3.7c-0.2,0-0.4,0.2-0.4,0.4v9.7
			C36.8,17.5,37,17.7,37.2,17.7"/>
		<path class="st0" d="M18.8,36.7h3.7c0.2,0,0.4-0.2,0.4-0.4V16.6c0-0.2-0.2-0.4-0.4-0.4h-3.7c-0.2,0-0.4,0.2-0.4,0.4v19.7
			C18.4,36.5,18.6,36.7,18.8,36.7"/>
	</g>
	<rect class="st1" width="125" height="40"/>
</g>
</svg>
