<svg xmlns="http://www.w3.org/2000/svg" viewBox="0 0 26.8 8.32"><title>vibe</title><g id="Layer_2" data-name="Layer 2"><g id="Layer_1-2" data-name="Layer 1"><polygon points="6.63 0 6.46 0 6.4 0.16 4.29 5.66 2.25 0.16 2.19 0 2.01 0 0.37 0 0 0 0.14 0.34 3.32 8.17 3.38 8.32 3.55 8.32 4.93 8.32 5.1 8.32 5.16 8.17 8.42 0.35 8.57 0 8.19 0 6.63 0"/><polygon points="9.49 0 9.24 0 9.24 0.25 9.24 8.07 9.24 8.32 9.49 8.32 11.03 8.32 11.28 8.32 11.28 8.07 11.28 0.25 11.28 0 11.03 0 9.49 0"/><path d="M18.49,3.91a1.71,1.71,0,0,0,.81-1.52V2.16c0-1.43-1-2.16-3-2.16H12.72V8.32h4c2.61,0,3-1.45,3-2.31V5.74A1.84,1.84,0,0,0,18.49,3.91ZM17.24,2.43c0,.68-.33.76-1.62.76h-.88V1.65h.93c1.46,0,1.57.24,1.57.59Zm-2.5,2.39h.92c1.83,0,2,.33,2,.8v.24c0,.61-.26.81-1.74.81H14.74Z"/><polygon points="26.55 6.67 22.68 6.67 22.68 4.88 26.22 4.88 26.47 4.88 26.47 4.63 26.47 3.5 26.47 3.25 26.22 3.25 22.68 3.25 22.68 1.65 26.47 1.65 26.72 1.65 26.72 1.4 26.72 0.25 26.72 0 26.47 0 20.9 0 20.65 0 20.65 0.25 20.65 8.07 20.65 8.32 20.9 8.32 26.55 8.32 26.8 8.32 26.8 8.07 26.8 6.92 26.8 6.67 26.55 6.67"/></g></g></svg>